STARTFONT 2.1
FONT -MIT-30VR KST-Medium-R-Normal--30-10-200-200-P-15-ISO8859-1
SIZE 10 200 200
FONTBOUNDINGBOX 29 30 -2 -8
STARTPROPERTIES 17
ADD_STYLE_NAME ""
AVERAGE_WIDTH 15
CHARSET_ENCODING "1"
CHARSET_REGISTRY "ISO8859"
DEFAULT_CHAR 0
FAMILY "30VR KST"
FONT_ASCENT 22
FONT_DESCENT 8
FOUNDRY "MIT"
PIXEL_SIZE 30
POINT_SIZE 10
RESOLUTION_X 200
RESOLUTION_Y 200
SETWIDTH_NAME "Normal"
SLANT "R"
SPACING "P"
WEIGHT_NAME "Medium"
ENDPROPERTIES
CHARS 126
STARTCHAR char1
ENCODING 1
SWIDTH 1400 0
DWIDTH 14 0
BBX 12 30 0 -8
BITMAP
0000
0000
0600
0600
0600
0600
0600
0600
0600
0600
0600
0600
0600
0600
0600
0600
C630
6660
36C0
1F80
0F00
0600
0000
0000
0000
0000
0000
0000
0000
0000
ENDCHAR
STARTCHAR char2
ENCODING 2
SWIDTH 1600 0
DWIDTH 16 0
BBX 14 30 0 -8
BITMAP
0000
0000
0000
0000
0000
0000
0000
0000
000C
1E18
3F18
61B0
40F0
C0E0
C060
C060
C060
C0E0
40F0
61B0
3F1C
1E0C
0000
0000
0000
0000
0000
0000
0000
0000
ENDCHAR
STARTCHAR char3
ENCODING 3
SWIDTH 1600 0
DWIDTH 16 0
BBX 14 30 0 -8
BITMAP
0000
0000
00E0
03F0
07F8
0E38
1C18
1818
3030
3030
6060
60C0
61C0
60F0
E038
E01C
E01C
E01C
E01C
F838
FFF0
CFE0
C000
C000
C000
C000
C000
0000
0000
0000
ENDCHAR
STARTCHAR char4
ENCODING 4
SWIDTH 1700 0
DWIDTH 17 0
BBX 15 30 0 -8
BITMAP
0000
0000
0000
0000
0000
0000
0000
0000
0100
0380
06C0
06C0
0C60
0C60
1830
1830
3018
3018
600C
600C
C006
C006
0000
0000
0000
0000
0000
0000
0000
0000
ENDCHAR
STARTCHAR char5
ENCODING 5
SWIDTH 1900 0
DWIDTH 19 0
BBX 16 30 0 -8
BITMAP
0000
0000
0000
0000
0000
0000
0000
0000
0000
0000
0000
0000
FFFF
FFFF
0003
0003
0003
0003
0003
0000
0000
0000
0000
0000
0000
0000
0000
0000
0000
0000
ENDCHAR
STARTCHAR char6
ENCODING 6
SWIDTH 1900 0
DWIDTH 19 0
BBX 11 30 2 -8
BITMAP
0000
0000
0000
0000
0000
0000
0000
07E0
1E00
3800
7000
6000
E000
E000
FF00
E000
E000
6000
7000
3800
1E00
07E0
0000
0000
0000
0000
0000
0000
0000
0000
ENDCHAR
STARTCHAR char7
ENCODING 7
SWIDTH 1600 0
DWIDTH 16 0
BBX 14 30 0 -8
BITMAP
0000
0000
0000
0000
0000
0000
0000
0000
0000
FFC0
FFF8
307C
3060
3060
3060
3060
3060
3060
3060
3060
3060
F060
003C
0000
0000
0000
0000
0000
0000
0000
ENDCHAR
STARTCHAR char8
ENCODING 8
SWIDTH 1600 0
DWIDTH 16 0
BBX 14 30 0 -8
BITMAP
0000
0000
0000
0000
7800
FC00
8E00
8600
0300
0300
0180
0180
0180
03C0
07C0
0EC0
1C60
3860
7030
6030
C018
C01C
0000
0000
0000
0000
0000
0000
0000
0000
ENDCHAR
STARTCHAR char9
ENCODING 9
SWIDTH 1900 0
DWIDTH 19 0
BBX 16 30 0 -8
BITMAP
0000
0000
0000
0000
0003
E007
F00F
781E
3C3C
1E78
0FF0
03E0
03C0
03C0
03C0
03E0
03E0
03E0
03E0
03E0
01E0
01C0
0000
0000
0000
0000
0000
0000
0000
0000
ENDCHAR
STARTCHAR char10
ENCODING 10
SWIDTH 1900 0
DWIDTH 19 0
BBX 15 30 0 -8
BITMAP
0000
0000
0000
07F0
1FFC
3FFE
300E
3000
3800
1E00
07C0
07E0
1FF8
3FFC
781C
E00C
E00C
E00C
E01C
703C
7C78
3FF0
0FE0
0000
0000
0000
0000
0000
0000
0000
ENDCHAR
STARTCHAR char11
ENCODING 11
SWIDTH 1400 0
DWIDTH 14 0
BBX 12 30 0 -8
BITMAP
0000
0000
0600
0F00
1F80
36C0
6660
C630
0600
0600
0600
0600
0600
0600
0600
0600
0600
0600
0600
0600
0600
0600
0000
0000
0000
0000
0000
0000
0000
0000
ENDCHAR
STARTCHAR char12
ENCODING 12
SWIDTH 1600 0
DWIDTH 16 0
BBX 14 30 0 -8
BITMAP
0000
0000
0000
0300
0300
0300
0300
0300
0300
FFFC
FFFC
0300
0300
0300
0300
0300
0300
0000
0000
FFFC
FFFC
0000
0000
0000
0000
0000
0000
0000
0000
0000
ENDCHAR
STARTCHAR char14
ENCODING 14
SWIDTH 2500 0
DWIDTH 25 0
BBX 22 30 0 -8
BITMAP
000000
000000
078730
0FCFB0
18F870
307030
303030
303030
303030
FFFFF0
FFFFF0
303030
303030
303030
303030
303030
303030
303030
303030
303030
787878
FCFCFC
000000
000000
000000
000000
000000
000000
000000
000000
ENDCHAR
STARTCHAR char15
ENCODING 15
SWIDTH 1500 0
DWIDTH 15 0
BBX 12 30 1 -8
BITMAP
0000
0000
0F00
1FC0
1860
0030
0030
0030
0030
0030
0030
1F30
3FF0
6070
C030
C030
C030
C030
C060
61C0
7F80
1F00
0000
0000
0000
0000
0000
0000
0000
0000
ENDCHAR
STARTCHAR char16
ENCODING 16
SWIDTH 1700 0
DWIDTH 17 0
BBX 14 30 0 -8
BITMAP
0000
0000
0000
0000
0000
0000
0000
0000
1FFC
3FFC
7000
E000
C000
C000
C000
E000
7000
3FFC
1FFC
0000
0000
0000
0000
0000
0000
0000
0000
0000
0000
0000
ENDCHAR
STARTCHAR char17
ENCODING 17
SWIDTH 1700 0
DWIDTH 17 0
BBX 14 30 0 -8
BITMAP
0000
0000
0000
0000
0000
0000
0000
0000
FFE0
FFF0
0038
001C
000C
000C
000C
001C
0038
FFF0
FFE0
0000
0000
0000
0000
0000
0000
0000
0000
0000
0000
0000
ENDCHAR
STARTCHAR char18
ENCODING 18
SWIDTH 1300 0
DWIDTH 13 0
BBX 11 30 1 -8
BITMAP
0000
0000
0000
0000
0000
0000
0000
0000
1F00
3F80
71C0
E0E0
C060
C060
C060
C060
C060
C060
C060
C060
C060
C060
0000
0000
0000
0000
0000
0000
0000
0000
ENDCHAR
STARTCHAR char19
ENCODING 19
SWIDTH 1300 0
DWIDTH 13 0
BBX 11 30 1 -8
BITMAP
0000
0000
0000
0000
0000
0000
0000
C060
C060
C060
C060
C060
C060
C060
C060
C060
C060
C060
E0E0
71C0
3F80
1F00
0000
0000
0000
0000
0000
0000
0000
0000
ENDCHAR
STARTCHAR char20
ENCODING 20
SWIDTH 1800 0
DWIDTH 18 0
BBX 16 30 0 -8
BITMAP
0000
F00F
6006
6006
300C
300C
300C
1818
1818
1FF8
0FF0
0C30
0C30
0660
0660
0660
03C0
03C0
03C0
0180
0180
0180
0000
0000
0000
0000
0000
0000
0000
0000
ENDCHAR
STARTCHAR char21
ENCODING 21
SWIDTH 1700 0
DWIDTH 17 0
BBX 15 30 0 -8
BITMAP
0000
0000
FFFE
FFFC
800C
000C
000C
000C
000C
000C
000C
03FC
03FC
000C
000C
000C
000C
000C
000C
800C
FFFC
FFFE
0000
0000
0000
0000
0000
0000
0000
0000
ENDCHAR
STARTCHAR char22
ENCODING 22
SWIDTH 1600 0
DWIDTH 16 0
BBX 14 30 0 -8
BITMAP
0000
0000
0000
0000
0000
0000
0000
0000
0780
1FE0
3030
7878
CCCC
C78C
C30C
C78C
CCCC
7878
3030
1FE0
0780
0000
0000
0000
0000
0000
0000
0000
0000
0000
ENDCHAR
STARTCHAR char23
ENCODING 23
SWIDTH 2000 0
DWIDTH 20 0
BBX 18 30 0 -8
BITMAP
000000
000000
000000
000000
000000
000000
000000
000000
000000
040800
0C0C00
180600
300300
600180
FFFFC0
FFFFC0
600180
300300
180600
0C0C00
040800
000000
000000
000000
000000
000000
000000
000000
000000
000000
ENDCHAR
STARTCHAR char24
ENCODING 24
SWIDTH 1800 0
DWIDTH 18 0
BBX 16 30 0 -8
BITMAP
0000
0000
0000
0000
0000
0000
0000
0000
0000
0400
0C00
1800
3000
6000
FFFF
FFFF
6000
3000
1800
0C00
0400
0000
0000
0000
0000
0000
0000
0000
0000
0000
ENDCHAR
STARTCHAR char25
ENCODING 25
SWIDTH 1800 0
DWIDTH 18 0
BBX 16 30 0 -8
BITMAP
0000
0000
0000
0000
0000
0000
0000
0000
0000
0020
0030
0018
000C
0006
FFFF
FFFF
0006
000C
0018
0030
0020
0000
0000
0000
0000
0000
0000
0000
0000
0000
ENDCHAR
STARTCHAR char26
ENCODING 26
SWIDTH 2500 0
DWIDTH 25 0
BBX 22 30 0 -8
BITMAP
000000
000000
0383C0
0FCFE0
18F870
307830
303800
303000
303000
FFFFF0
FFFFF0
303030
303030
303030
303030
303030
303030
303030
303030
303030
787878
FCFCFC
000000
000000
000000
000000
000000
000000
000000
000000
ENDCHAR
STARTCHAR char27
ENCODING 27
SWIDTH 1900 0
DWIDTH 19 0
BBX 14 30 0 -8
BITMAP
0000
0000
0000
0000
0000
0300
0300
0780
0FC0
1CE0
3870
7038
F03C
7038
3870
1CE0
0FC0
0780
0300
0300
0000
0000
0000
0000
0000
0000
0000
0000
0000
0000
ENDCHAR
STARTCHAR char28
ENCODING 28
SWIDTH 1500 0
DWIDTH 15 0
BBX 12 30 1 -8
BITMAP
0000
0000
0000
0000
0000
0000
0030
00F0
03C0
0F00
3C00
F000
F000
3C00
0F00
03C0
00F0
0030
0000
0000
FFF0
FFF0
0000
0000
0000
0000
0000
0000
0000
0000
ENDCHAR
STARTCHAR char29
ENCODING 29
SWIDTH 2000 0
DWIDTH 20 0
BBX 18 30 0 -8
BITMAP
000000
000000
070700
1F8F80
38D8C0
307040
303000
303000
303000
FFFE00
FFFE00
303000
303000
303000
303000
303000
303000
303000
303000
303000
707800
F8FC00
000000
000000
000000
000000
000000
000000
000000
000000
ENDCHAR
STARTCHAR char30
ENCODING 30
SWIDTH 1600 0
DWIDTH 16 0
BBX 14 30 0 -8
BITMAP
0000
0000
0780
1FC0
3860
3060
3000
3000
3000
FFF0
FFF0
3030
3030
3030
3030
3030
3030
3030
3030
3030
7878
FCFC
0000
0000
0000
0000
0000
0000
0000
0000
ENDCHAR
STARTCHAR char31
ENCODING 31
SWIDTH 1700 0
DWIDTH 17 0
BBX 15 30 0 -8
BITMAP
0000
0000
0798
1FD8
3878
3038
3018
3018
3018
FFF8
FFF8
3018
3018
3018
3018
3018
3018
3018
3018
3018
783C
FC7E
0000
0000
0000
0000
0000
0000
0000
0000
ENDCHAR
STARTCHAR char32
ENCODING 32
SWIDTH 1000 0
DWIDTH 10 0
BBX 1 30 0 -8
BITMAP
00
00
00
00
00
00
00
00
00
00
00
00
00
00
00
00
00
00
00
00
00
00
00
00
00
00
00
00
00
00
ENDCHAR
STARTCHAR char33
ENCODING 33
SWIDTH 600 0
DWIDTH 6 0
BBX 4 30 0 -8
BITMAP
00
00
60
F0
F0
F0
F0
F0
F0
60
60
60
60
60
60
00
00
00
00
60
F0
60
00
00
00
00
00
00
00
00
ENDCHAR
STARTCHAR char34
ENCODING 34
SWIDTH 1100 0
DWIDTH 11 0
BBX 8 30 1 -8
BITMAP
E7
E7
E7
E7
E7
E7
42
00
00
00
00
00
00
00
00
00
00
00
00
00
00
00
00
00
00
00
00
00
00
00
ENDCHAR
STARTCHAR char35
ENCODING 35
SWIDTH 1400 0
DWIDTH 14 0
BBX 12 30 0 -8
BITMAP
0000
0000
0000
0000
0000
0000
0000
0000
0000
1980
1980
1980
FFF0
FFF0
1980
1980
FFF0
FFF0
1980
1980
1980
0000
0000
0000
0000
0000
0000
0000
0000
0000
ENDCHAR
STARTCHAR char36
ENCODING 36
SWIDTH 1400 0
DWIDTH 14 0
BBX 12 30 0 -8
BITMAP
1980
1980
1980
1FC0
39E0
79B0
59B0
D9B0
D980
F980
7D80
3F80
1BC0
19E0
19B0
19B0
1990
D990
D9B0
DFE0
7F80
1980
1980
1980
0000
0000
0000
0000
0000
0000
ENDCHAR
STARTCHAR char37
ENCODING 37
SWIDTH 1600 0
DWIDTH 16 0
BBX 14 30 0 -8
BITMAP
0000
0000
01F8
03F8
0630
7C30
FC60
CC60
CCC0
FCC0
7980
0180
0300
0300
0600
0600
0C78
0CFC
18CC
18CC
30FC
3078
0000
0000
0000
0000
0000
0000
0000
0000
ENDCHAR
STARTCHAR char38
ENCODING 38
SWIDTH 2100 0
DWIDTH 21 0
BBX 18 30 0 -8
BITMAP
000000
000000
070000
0F8000
18C000
38E000
306000
386000
38C000
198000
1F03C0
0E07C0
1F0CC0
3718C0
639800
C3D000
C1F000
C0F000
C0F800
E1BC00
FF1EC0
7E0F80
000000
000000
000000
000000
000000
000000
000000
000000
ENDCHAR
STARTCHAR char39
ENCODING 39
SWIDTH 600 0
DWIDTH 6 0
BBX 4 30 0 -8
BITMAP
60
F0
F0
70
30
30
60
C0
00
00
00
00
00
00
00
00
00
00
00
00
00
00
00
00
00
00
00
00
00
00
ENDCHAR
STARTCHAR char40
ENCODING 40
SWIDTH 900 0
DWIDTH 9 0
BBX 7 30 0 -8
BITMAP
06
0C
0C
18
18
30
30
60
60
E0
E0
C0
C0
C0
C0
E0
E0
60
60
30
30
18
18
0C
0C
06
00
00
00
00
ENDCHAR
STARTCHAR char41
ENCODING 41
SWIDTH 900 0
DWIDTH 9 0
BBX 7 30 0 -8
BITMAP
C0
60
60
30
30
18
18
0C
0C
0E
0E
06
06
06
06
0E
0E
0C
0C
18
18
30
30
60
60
C0
00
00
00
00
ENDCHAR
STARTCHAR char42
ENCODING 42
SWIDTH 1200 0
DWIDTH 12 0
BBX 10 30 0 -8
BITMAP
0000
0000
0000
0000
0000
0000
0000
0000
0C00
0C00
0C00
CCC0
CCC0
FFC0
1E00
1E00
FFC0
CCC0
CCC0
0C00
0C00
0C00
0000
0000
0000
0000
0000
0000
0000
0000
ENDCHAR
STARTCHAR char43
ENCODING 43
SWIDTH 1300 0
DWIDTH 13 0
BBX 10 30 1 -8
BITMAP
0000
0000
0000
0000
0000
0000
0000
0000
0000
0000
0C00
0C00
0C00
0C00
FFC0
FFC0
0C00
0C00
0C00
0C00
0000
0000
0000
0000
0000
0000
0000
0000
0000
0000
ENDCHAR
STARTCHAR char44
ENCODING 44
SWIDTH 600 0
DWIDTH 6 0
BBX 4 30 0 -8
BITMAP
00
00
00
00
00
00
00
00
00
00
00
00
00
00
00
00
00
00
00
60
F0
70
30
30
60
C0
00
00
00
00
ENDCHAR
STARTCHAR char45
ENCODING 45
SWIDTH 1000 0
DWIDTH 10 0
BBX 8 30 0 -8
BITMAP
00
00
00
00
00
00
00
00
00
00
00
00
FF
FF
00
00
00
00
00
00
00
00
00
00
00
00
00
00
00
00
ENDCHAR
STARTCHAR char46
ENCODING 46
SWIDTH 600 0
DWIDTH 6 0
BBX 4 30 0 -8
BITMAP
00
00
00
00
00
00
00
00
00
00
00
00
00
00
00
00
00
00
00
60
F0
60
00
00
00
00
00
00
00
00
ENDCHAR
STARTCHAR char47
ENCODING 47
SWIDTH 1000 0
DWIDTH 10 0
BBX 7 30 0 -8
BITMAP
00
00
06
06
06
0C
0C
0C
0C
18
18
18
18
30
30
30
30
60
60
60
60
C0
C0
C0
C0
00
00
00
00
00
ENDCHAR
STARTCHAR char48
ENCODING 48
SWIDTH 1400 0
DWIDTH 14 0
BBX 12 30 0 -8
BITMAP
0000
0000
0F00
1F80
30C0
6060
6060
6070
E030
C030
C030
C030
C030
C030
C030
C030
E030
6060
6060
30C0
1F80
0F00
0000
0000
0000
0000
0000
0000
0000
0000
ENDCHAR
STARTCHAR char49
ENCODING 49
SWIDTH 900 0
DWIDTH 9 0
BBX 7 30 0 -8
BITMAP
00
00
18
78
F8
38
38
38
38
38
38
38
38
38
38
38
38
38
38
38
7C
FE
00
00
00
00
00
00
00
00
ENDCHAR
STARTCHAR char50
ENCODING 50
SWIDTH 1500 0
DWIDTH 15 0
BBX 13 30 0 -8
BITMAP
0000
0000
1F80
3FC0
60E0
C070
C038
E038
7038
3838
0070
0060
00C0
0180
0300
0600
0C00
1800
3000
6018
7FF8
7FF8
0018
0008
0000
0000
0000
0000
0000
0000
ENDCHAR
STARTCHAR char51
ENCODING 51
SWIDTH 1300 0
DWIDTH 13 0
BBX 11 30 0 -8
BITMAP
0000
0000
1E00
3F00
6380
C1C0
C1C0
C1C0
01C0
0180
0300
0600
0F80
18C0
00E0
0060
0060
0060
C0C0
E180
7F00
3C00
0000
0000
0000
0000
0000
0000
0000
0000
ENDCHAR
STARTCHAR char52
ENCODING 52
SWIDTH 1500 0
DWIDTH 15 0
BBX 13 30 0 -8
BITMAP
0000
0000
0040
00C0
00C0
01C0
03C0
06C0
0CC0
18C0
30C0
60C0
FFF8
FFF8
01C0
01C0
01C0
01C0
01C0
01C0
03E0
0FF8
0000
0000
0000
0000
0000
0000
0000
0000
ENDCHAR
STARTCHAR char53
ENCODING 53
SWIDTH 1300 0
DWIDTH 13 0
BBX 11 30 0 -8
BITMAP
0000
0000
6180
7F80
7F00
7C00
6000
6000
6000
6F80
7FC0
70E0
60E0
6060
0060
0060
0060
8060
80E0
C0C0
FF80
3E00
0000
0000
0000
0000
0000
0000
0000
0000
ENDCHAR
STARTCHAR char54
ENCODING 54
SWIDTH 1500 0
DWIDTH 15 0
BBX 13 30 0 -8
BITMAP
0000
0000
0F80
1FC0
38E0
7060
E060
C000
C000
C000
CFC0
DFE0
F070
E030
C038
C038
C038
C030
6070
70E0
3FC0
1F00
0000
0000
0000
0000
0000
0000
0000
0000
ENDCHAR
STARTCHAR char55
ENCODING 55
SWIDTH 1300 0
DWIDTH 13 0
BBX 11 30 0 -8
BITMAP
0000
0000
FFE0
FFE0
FFE0
C060
8060
00C0
00C0
00C0
0180
0180
0180
0300
0300
0300
0600
0600
0600
0C00
0C00
0C00
0000
0000
0000
0000
0000
0000
0000
0000
ENDCHAR
STARTCHAR char56
ENCODING 56
SWIDTH 1500 0
DWIDTH 15 0
BBX 13 30 0 -8
BITMAP
0000
0000
0F80
1FC0
30E0
6070
6030
7030
7860
3CC0
1F80
0FC0
19E0
30F0
6078
E038
E038
E038
6038
7070
3FE0
0F80
0000
0000
0000
0000
0000
0000
0000
0000
ENDCHAR
STARTCHAR char57
ENCODING 57
SWIDTH 1400 0
DWIDTH 14 0
BBX 12 30 0 -8
BITMAP
0000
0000
0F00
3F80
30C0
6060
E060
E070
E070
E070
E070
E070
70F0
3FB0
1F30
0030
0070
0070
2060
70C0
7F80
3F00
0000
0000
0000
0000
0000
0000
0000
0000
ENDCHAR
STARTCHAR char58
ENCODING 58
SWIDTH 600 0
DWIDTH 6 0
BBX 4 30 0 -8
BITMAP
00
00
00
00
00
00
00
00
00
00
60
F0
60
00
00
00
00
00
00
60
F0
60
00
00
00
00
00
00
00
00
ENDCHAR
STARTCHAR char59
ENCODING 59
SWIDTH 600 0
DWIDTH 6 0
BBX 4 30 0 -8
BITMAP
00
00
00
00
00
00
00
00
00
00
60
F0
60
00
00
00
00
00
00
60
F0
70
30
30
60
C0
00
00
00
00
ENDCHAR
STARTCHAR char60
ENCODING 60
SWIDTH 1500 0
DWIDTH 15 0
BBX 12 30 1 -8
BITMAP
0000
0000
0000
0000
0000
0000
0000
0000
0000
0030
00F0
03C0
0F00
3C00
F000
F000
3C00
0F00
03C0
00F0
0030
0000
0000
0000
0000
0000
0000
0000
0000
0000
ENDCHAR
STARTCHAR char61
ENCODING 61
SWIDTH 1500 0
DWIDTH 15 0
BBX 12 30 1 -8
BITMAP
0000
0000
0000
0000
0000
0000
0000
0000
0000
0000
0000
0000
FFF0
FFF0
0000
0000
FFF0
FFF0
0000
0000
0000
0000
0000
0000
0000
0000
0000
0000
0000
0000
ENDCHAR
STARTCHAR char62
ENCODING 62
SWIDTH 1500 0
DWIDTH 15 0
BBX 12 30 1 -8
BITMAP
0000
0000
0000
0000
0000
0000
0000
0000
0000
C000
F000
3C00
0F00
03C0
00F0
00F0
03C0
0F00
3C00
F000
C000
0000
0000
0000
0000
0000
0000
0000
0000
0000
ENDCHAR
STARTCHAR char63
ENCODING 63
SWIDTH 1100 0
DWIDTH 11 0
BBX 9 30 0 -8
BITMAP
0000
0000
7800
FE00
C700
0380
0180
0180
0180
0180
0300
3F00
3C00
3000
3000
3000
3000
0000
0000
3000
7800
3000
0000
0000
0000
0000
0000
0000
0000
0000
ENDCHAR
STARTCHAR char64
ENCODING 64
SWIDTH 1600 0
DWIDTH 16 0
BBX 14 30 0 -8
BITMAP
0000
0000
0000
0000
0000
0000
0000
0000
0FC0
3FF0
6038
C01C
C78C
CFEC
CC6C
CC6C
CFF8
C7F0
E000
701C
3FF8
0FE0
0000
0000
0000
0000
0000
0000
0000
0000
ENDCHAR
STARTCHAR char65
ENCODING 65
SWIDTH 2200 0
DWIDTH 22 0
BBX 21 30 0 -8
BITMAP
000000
000000
002000
007000
007000
00F800
00F800
01BC00
019C00
019C00
030E00
030E00
060700
07FF00
07FF00
0C0300
0C0380
180380
1801C0
3001C0
3001E0
FC07F8
000000
000000
000000
000000
000000
000000
000000
000000
ENDCHAR
STARTCHAR char66
ENCODING 66
SWIDTH 2200 0
DWIDTH 22 0
BBX 19 30 0 -8
BITMAP
000000
000000
FFFC00
1FFE00
0E0F00
0E0700
0E0700
0E0700
0E0700
0E0600
0E0C00
0FF800
0FFE00
0E0780
0E03C0
0E01E0
0E01E0
0E01E0
0E01E0
0E03C0
0FFF80
7FFE00
000000
000000
000000
000000
000000
000000
000000
000000
ENDCHAR
STARTCHAR char67
ENCODING 67
SWIDTH 2200 0
DWIDTH 22 0
BBX 19 30 0 -8
BITMAP
000000
000000
03FE00
0FFF00
1F0180
3C01C0
3C00C0
780060
780000
F00000
F00000
F00000
F00000
F00000
F00000
780020
780020
3C0060
3C00E0
1F01E0
0FFF20
03FE20
000000
000000
000000
000000
000000
000000
000000
000000
ENDCHAR
STARTCHAR char68
ENCODING 68
SWIDTH 2300 0
DWIDTH 23 0
BBX 20 30 0 -8
BITMAP
000000
000000
FFF800
7FFC00
3C0700
1C0380
1C01C0
1C01E0
1C00E0
1C00F0
1C00F0
1C00F0
1C00F0
1C00F0
1C00F0
1C00F0
1C00E0
1C00E0
1C01C0
1C0380
3FFF00
FFFE00
000000
000000
000000
000000
000000
000000
000000
000000
ENDCHAR
STARTCHAR char69
ENCODING 69
SWIDTH 2000 0
DWIDTH 20 0
BBX 17 30 0 -8
BITMAP
000000
000000
7FFF00
3FFF00
1E0300
0E0100
0E0100
0E0000
0E0000
0E1000
0E3000
0FF000
0FF000
0E3000
0E1000
0E0000
0E0000
0E0080
0E0080
1E0180
3FFF80
FFFF80
000000
000000
000000
000000
000000
000000
000000
000000
ENDCHAR
STARTCHAR char70
ENCODING 70
SWIDTH 1800 0
DWIDTH 18 0
BBX 15 30 0 -8
BITMAP
0000
0000
FFFE
7FFE
3C06
1C02
1C02
1C00
1C00
1C10
1C30
1FF0
1FF0
1C30
1C10
1C00
1C00
1C00
1C00
3E00
7F00
FF80
0000
0000
0000
0000
0000
0000
0000
0000
ENDCHAR
STARTCHAR char71
ENCODING 71
SWIDTH 2400 0
DWIDTH 24 0
BBX 21 30 0 -8
BITMAP
000000
000000
00FC00
03FF40
0F03C0
1E01C0
3C01C0
3800C0
380040
780000
700000
F00000
F00000
7003F8
7000F0
7800F0
7800F0
3800F0
3C01F0
1F03C0
0FFF80
03FF80
000000
000000
000000
000000
000000
000000
000000
000000
ENDCHAR
STARTCHAR char72
ENCODING 72
SWIDTH 2500 0
DWIDTH 25 0
BBX 22 30 0 -8
BITMAP
000000
000000
FF03FC
7C00F8
380070
380070
380070
380070
380070
380070
380070
3FFFF0
3FFFF0
380070
380070
380070
380070
380070
380070
380070
7C00F8
FF03FC
000000
000000
000000
000000
000000
000000
000000
000000
ENDCHAR
STARTCHAR char73
ENCODING 73
SWIDTH 1100 0
DWIDTH 11 0
BBX 9 30 0 -8
BITMAP
0000
0000
FF80
3E00
1C00
1C00
1C00
1C00
1C00
1C00
1C00
1C00
1C00
1C00
1C00
1C00
1C00
1C00
1C00
1C00
3E00
FF80
0000
0000
0000
0000
0000
0000
0000
0000
ENDCHAR
STARTCHAR char74
ENCODING 74
SWIDTH 1300 0
DWIDTH 13 0
BBX 13 30 -3 -8
BITMAP
0000
0000
07F8
03F0
01E0
00E0
00E0
00E0
00E0
00E0
00E0
00E0
00E0
00E0
00E0
00E0
00E0
00E0
00E0
00E0
00E0
00E0
00E0
00E0
00E0
01C0
81C0
C380
FF00
7E00
ENDCHAR
STARTCHAR char75
ENCODING 75
SWIDTH 2500 0
DWIDTH 25 0
BBX 22 30 0 -8
BITMAP
000000
000000
FF8FE0
3E0780
1E0300
1C0600
1C0C00
1C1800
1C3000
1C6000
1C6000
1CE000
1DF000
1F7000
1E3800
1C1C00
1C0E00
1C0700
1C0380
1C01C0
3E01F0
7F8FFC
000000
000000
000000
000000
000000
000000
000000
000000
ENDCHAR
STARTCHAR char76
ENCODING 76
SWIDTH 2000 0
DWIDTH 20 0
BBX 17 30 0 -8
BITMAP
000000
000000
FF8000
3E0000
1C0000
1C0000
1C0000
1C0000
1C0000
1C0000
1C0000
1C0000
1C0000
1C0000
1C0000
1C0000
1C0000
1C0080
1C0080
1C0180
3FFF80
FFFF80
000000
000000
000000
000000
000000
000000
000000
000000
ENDCHAR
STARTCHAR char77
ENCODING 77
SWIDTH 2900 0
DWIDTH 29 0
BBX 26 30 0 -8
BITMAP
00000000
00000000
FE001FC0
1E001F00
1E001C00
1F003C00
1F003C00
1F007C00
1B80DC00
1B80DC00
19C19C00
19C19C00
18E31C00
18E31C00
18F61C00
18761C00
187C1C00
183C1C00
18381C00
18381C00
3C103E00
7E107F00
00000000
00000000
00000000
00000000
00000000
00000000
00000000
00000000
ENDCHAR
STARTCHAR char78
ENCODING 78
SWIDTH 2400 0
DWIDTH 24 0
BBX 21 30 0 -8
BITMAP
000000
000000
F801F8
7C0070
3C0060
3E0060
3F0060
378060
33C060
31E060
30F060
307860
303C60
301E60
300F60
3007E0
3003E0
3003E0
3001E0
3000E0
780060
FC0060
000000
000000
000000
000000
000000
000000
000000
000000
ENDCHAR
STARTCHAR char79
ENCODING 79
SWIDTH 2600 0
DWIDTH 26 0
BBX 23 30 0 -8
BITMAP
000000
000000
00FE00
03FF80
0701E0
0E00F0
1C0070
380038
78003C
70001C
70001E
F0001E
F0001E
70001C
70001C
78003C
380038
1C0038
0E0070
0700E0
03FF80
00FE00
000000
000000
000000
000000
000000
000000
000000
000000
ENDCHAR
STARTCHAR char80
ENCODING 80
SWIDTH 2000 0
DWIDTH 20 0
BBX 17 30 0 -8
BITMAP
000000
000000
FFF800
7FFC00
1C1E00
1C0F00
1C0700
1C0780
1C0780
1C0700
1C0700
1C0E00
1FFC00
1FF800
1C0000
1C0000
1C0000
1C0000
1C0000
1C0000
1E0000
7F8000
000000
000000
000000
000000
000000
000000
000000
000000
ENDCHAR
STARTCHAR char81
ENCODING 81
SWIDTH 2500 0
DWIDTH 25 0
BBX 29 30 0 -8
BITMAP
00000000
00000000
007E0000
01FF8000
0301C000
0E00E000
1C007000
1C007800
38003800
78003C00
78003C00
F0003C00
F0003C00
F0003C00
70003C00
78003800
78007000
38007000
1C00E000
0E01C000
03FF0000
00FE0000
00100000
003F0000
00C3E000
00C0F818
00007FF8
00003FF0
00001FE0
00000380
ENDCHAR
STARTCHAR char82
ENCODING 82
SWIDTH 2200 0
DWIDTH 22 0
BBX 19 30 0 -8
BITMAP
000000
000000
FFF800
3FFC00
3C1E00
1C0E00
1C0F00
1C0F00
1C0F00
1C0F00
1C0E00
1C3C00
1DF000
1FE000
1CE000
1C7000
1C3800
1C1C00
1C0E00
1C0700
3C0780
FF03E0
000000
000000
000000
000000
000000
000000
000000
000000
ENDCHAR
STARTCHAR char83
ENCODING 83
SWIDTH 1700 0
DWIDTH 17 0
BBX 14 30 0 -8
BITMAP
0000
0000
0700
1FD0
3870
7030
E010
E010
7000
7C00
3F00
0FC0
03F0
00F8
003C
801C
801C
C018
E038
F070
BFE0
0F80
0000
0000
0000
0000
0000
0000
0000
0000
ENDCHAR
STARTCHAR char84
ENCODING 84
SWIDTH 2300 0
DWIDTH 23 0
BBX 20 30 0 -8
BITMAP
000000
000000
FFFFF0
FFFFF0
C0E030
80E010
80E010
00E000
00E000
00E000
00E000
00E000
00E000
00E000
00E000
00E000
00E000
00E000
00E000
00E000
01F000
07FC00
000000
000000
000000
000000
000000
000000
000000
000000
ENDCHAR
STARTCHAR char85
ENCODING 85
SWIDTH 2400 0
DWIDTH 24 0
BBX 21 30 0 -8
BITMAP
000000
000000
FF01F8
7E00F0
380060
380060
380060
380060
380060
380060
380060
380060
380060
380060
380060
380060
3800E0
1C00E0
1C01C0
0E0380
07FF00
01FC00
000000
000000
000000
000000
000000
000000
000000
000000
ENDCHAR
STARTCHAR char86
ENCODING 86
SWIDTH 2500 0
DWIDTH 25 0
BBX 22 30 0 -8
BITMAP
000000
000000
FF81FC
3E0070
1E0060
1E0060
0E00C0
0F00C0
070180
070180
038300
038300
01C600
01C600
01EC00
00EC00
00F800
00F800
007000
007000
007000
002000
000000
000000
000000
000000
000000
000000
000000
000000
ENDCHAR
STARTCHAR char87
ENCODING 87
SWIDTH 3100 0
DWIDTH 31 0
BBX 28 30 0 -8
BITMAP
00000000
00000000
FF0303F0
7C0301E0
3C0300C0
3C0380C0
1C0780C0
1C078180
0E0DC180
0E0DC180
0E0DC300
0F18C300
0718E300
0718E600
0730E600
03B07600
03B07C00
03E07C00
03E07800
01C03800
01C03800
00803000
00000000
00000000
00000000
00000000
00000000
00000000
00000000
00000000
ENDCHAR
STARTCHAR char88
ENCODING 88
SWIDTH 2500 0
DWIDTH 25 0
BBX 22 30 0 -8
BITMAP
000000
000000
FF83F0
7E01E0
3C00C0
1E0180
0F0300
078600
03CC00
03D800
01F000
00F000
007000
007800
00DC00
018E00
030F00
060380
0C03C0
1801E0
3801F0
7E07FC
000000
000000
000000
000000
000000
000000
000000
000000
ENDCHAR
STARTCHAR char89
ENCODING 89
SWIDTH 2200 0
DWIDTH 22 0
BBX 19 30 0 -8
BITMAP
000000
000000
FC03E0
FC03E0
3C0180
1C0300
1E0300
0E0600
0E0600
070C00
070C00
039800
03F000
01F000
01E000
00E000
00E000
00E000
00E000
00E000
01F000
07FC00
000000
000000
000000
000000
000000
000000
000000
000000
ENDCHAR
STARTCHAR char90
ENCODING 90
SWIDTH 1800 0
DWIDTH 18 0
BBX 15 30 0 -8
BITMAP
0000
0000
7FFE
FFFE
C01C
C03C
8038
0070
00F0
01E0
01C0
03C0
0780
0700
0F00
1E00
1C00
3802
7802
7006
FFFE
FFFE
0000
0000
0000
0000
0000
0000
0000
0000
ENDCHAR
STARTCHAR char91
ENCODING 91
SWIDTH 900 0
DWIDTH 9 0
BBX 7 30 1 -8
BITMAP
FE
FE
E0
C0
C0
C0
C0
C0
C0
C0
C0
C0
C0
C0
C0
C0
C0
C0
C0
C0
C0
E0
FE
FE
00
00
00
00
00
00
ENDCHAR
STARTCHAR char92
ENCODING 92
SWIDTH 1000 0
DWIDTH 10 0
BBX 7 30 0 -8
BITMAP
00
C0
C0
C0
60
60
60
60
30
30
30
30
18
18
18
18
0C
0C
0C
0C
06
06
06
06
00
00
00
00
00
00
ENDCHAR
STARTCHAR char93
ENCODING 93
SWIDTH 900 0
DWIDTH 9 0
BBX 7 30 0 -8
BITMAP
FE
FE
0E
06
06
06
06
06
06
06
06
06
06
06
06
06
06
06
06
06
06
0E
FE
FE
00
00
00
00
00
00
ENDCHAR
STARTCHAR char94
ENCODING 94
SWIDTH 1900 0
DWIDTH 19 0
BBX 17 30 0 -8
BITMAP
008000
01C000
03E000
07F000
0E3800
1C1C00
380E00
700700
E00380
000000
000000
000000
000000
000000
000000
000000
000000
000000
000000
000000
000000
000000
000000
000000
000000
000000
000000
000000
000000
000000
ENDCHAR
STARTCHAR char95
ENCODING 95
SWIDTH 1400 0
DWIDTH 14 0
BBX 14 30 0 -8
BITMAP
0000
0000
0000
0000
0000
0000
0000
0000
0000
0000
0000
0000
0000
0000
0000
0000
0000
0000
0000
0000
0000
0000
0000
FFFC
FFFC
0000
0000
0000
0000
0000
ENDCHAR
STARTCHAR char96
ENCODING 96
SWIDTH 500 0
DWIDTH 5 0
BBX 4 30 0 -8
BITMAP
30
60
C0
C0
E0
F0
F0
60
00
00
00
00
00
00
00
00
00
00
00
00
00
00
00
00
00
00
00
00
00
00
ENDCHAR
STARTCHAR char97
ENCODING 97
SWIDTH 1400 0
DWIDTH 14 0
BBX 12 30 1 -8
BITMAP
0000
0000
0000
0000
0000
0000
0000
0000
3E00
FF80
C180
C180
0180
0F80
1F80
3180
6180
C180
C180
C380
FFB0
78E0
0000
0000
0000
0000
0000
0000
0000
0000
ENDCHAR
STARTCHAR char98
ENCODING 98
SWIDTH 1600 0
DWIDTH 16 0
BBX 13 30 0 -8
BITMAP
0000
0000
E000
6000
6000
6000
6000
6000
6FC0
7FE0
7030
6018
6018
6018
6018
6018
6018
6018
6030
7060
6FC0
4F80
0000
0000
0000
0000
0000
0000
0000
0000
ENDCHAR
STARTCHAR char99
ENCODING 99
SWIDTH 1200 0
DWIDTH 12 0
BBX 10 30 0 -8
BITMAP
0000
0000
0000
0000
0000
0000
0000
0000
0F80
3FC0
70C0
6000
E000
E000
C000
C000
C000
E000
E000
70C0
3FC0
1F80
0000
0000
0000
0000
0000
0000
0000
0000
ENDCHAR
STARTCHAR char100
ENCODING 100
SWIDTH 1700 0
DWIDTH 17 0
BBX 14 30 0 -8
BITMAP
0000
0000
0070
00F0
0030
0030
0030
0030
0FB0
3FF0
7070
E030
C030
C030
C030
C030
C030
C030
E070
70F8
3FBC
1F18
0000
0000
0000
0000
0000
0000
0000
0000
ENDCHAR
STARTCHAR char101
ENCODING 101
SWIDTH 1200 0
DWIDTH 12 0
BBX 10 30 0 -8
BITMAP
0000
0000
0000
0000
0000
0000
0000
0000
0F00
3F80
60C0
C0C0
C0C0
FFC0
FFC0
C000
C000
C000
C000
60C0
3F80
1F00
0000
0000
0000
0000
0000
0000
0000
0000
ENDCHAR
STARTCHAR char102
ENCODING 102
SWIDTH 1100 0
DWIDTH 11 0
BBX 11 30 0 -8
BITMAP
0000
0000
0700
0F80
18C0
3060
3000
3000
3000
FE00
FE00
3000
3000
3000
3000
3000
3000
3000
3000
3000
7800
FC00
0000
0000
0000
0000
0000
0000
0000
0000
ENDCHAR
STARTCHAR char103
ENCODING 103
SWIDTH 1500 0
DWIDTH 15 0
BBX 14 30 0 -8
BITMAP
0000
0000
0000
0000
0000
0000
0000
0000
1E18
3F3C
61C8
C0C0
C0C0
C0C0
C0C0
E1C0
7F80
3F00
3000
6000
C000
FF80
7FE0
0070
C030
C030
C030
E060
7FC0
1F80
ENDCHAR
STARTCHAR char104
ENCODING 104
SWIDTH 1600 0
DWIDTH 16 0
BBX 13 30 0 -8
BITMAP
0000
0000
1000
3000
F000
3000
3000
3000
3000
33C0
3FE0
3830
3030
3030
3030
3030
3030
3030
3030
3030
3030
7878
0000
0000
0000
0000
0000
0000
0000
0000
ENDCHAR
STARTCHAR char105
ENCODING 105
SWIDTH 800 0
DWIDTH 8 0
BBX 6 30 0 -8
BITMAP
00
00
00
20
70
20
00
00
10
F0
30
30
30
30
30
30
30
30
30
30
78
FC
00
00
00
00
00
00
00
00
ENDCHAR
STARTCHAR char106
ENCODING 106
SWIDTH 1000 0
DWIDTH 10 0
BBX 8 30 -2 -8
BITMAP
00
00
00
02
07
02
00
00
01
0F
03
03
03
03
03
03
03
03
03
03
03
03
03
03
03
03
C3
63
3F
1E
ENDCHAR
STARTCHAR char107
ENCODING 107
SWIDTH 1600 0
DWIDTH 16 0
BBX 14 30 0 -8
BITMAP
0000
0000
3000
7000
F000
3000
3000
3000
3000
31E0
30C0
3180
3300
3600
3C00
3E00
3700
3380
31C0
30E0
7070
FC7C
0000
0000
0000
0000
0000
0000
0000
0000
ENDCHAR
STARTCHAR char108
ENCODING 108
SWIDTH 800 0
DWIDTH 8 0
BBX 6 30 0 -8
BITMAP
00
00
30
70
F0
30
30
30
30
30
30
30
30
30
30
30
30
30
30
30
78
FC
00
00
00
00
00
00
00
00
ENDCHAR
STARTCHAR char109
ENCODING 109
SWIDTH 2400 0
DWIDTH 24 0
BBX 20 30 0 -8
BITMAP
000000
000000
000000
000000
000000
000000
000000
000000
2F8F00
7FDFC0
F0F0E0
606060
606060
606060
606060
606060
606060
606060
606060
606060
606060
F0F0F0
000000
000000
000000
000000
000000
000000
000000
000000
ENDCHAR
STARTCHAR char110
ENCODING 110
SWIDTH 1500 0
DWIDTH 15 0
BBX 12 30 0 -8
BITMAP
0000
0000
0000
0000
0000
0000
0000
0000
6780
EFC0
7860
7060
6060
6060
6060
6060
6060
6060
6060
6060
6060
F0F0
0000
0000
0000
0000
0000
0000
0000
0000
ENDCHAR
STARTCHAR char111
ENCODING 111
SWIDTH 1300 0
DWIDTH 13 0
BBX 11 30 0 -8
BITMAP
0000
0000
0000
0000
0000
0000
0000
0000
1F00
3F80
60C0
C060
C060
C060
C060
C060
C060
C060
C060
60C0
3F80
1F00
0000
0000
0000
0000
0000
0000
0000
0000
ENDCHAR
STARTCHAR char112
ENCODING 112
SWIDTH 1500 0
DWIDTH 15 0
BBX 12 30 0 -8
BITMAP
0000
0000
0000
0000
0000
0000
0000
0000
2300
EFC0
7860
7030
6030
6030
6030
6030
6030
6030
7030
7860
6FC0
6780
6000
6000
6000
6000
6000
6000
6000
F000
ENDCHAR
STARTCHAR char113
ENCODING 113
SWIDTH 1300 0
DWIDTH 13 0
BBX 11 30 0 -8
BITMAP
0000
0000
0000
0000
0000
0000
0000
0000
1F40
3FE0
61C0
C0C0
C0C0
C0C0
C0C0
C0C0
C0C0
C0C0
C0C0
E1C0
7FC0
3EC0
00C0
00C0
00C0
00C0
00C0
00C0
00C0
01E0
ENDCHAR
STARTCHAR char114
ENCODING 114
SWIDTH 1200 0
DWIDTH 12 0
BBX 10 30 0 -8
BITMAP
0000
0000
0000
0000
0000
0000
0000
0000
3180
F3C0
76C0
3C00
3800
3000
3000
3000
3000
3000
3000
3000
7800
FC00
0000
0000
0000
0000
0000
0000
0000
0000
ENDCHAR
STARTCHAR char115
ENCODING 115
SWIDTH 1100 0
DWIDTH 11 0
BBX 9 30 0 -8
BITMAP
0000
0000
0000
0000
0000
0000
0000
0000
3F00
7F80
6180
6080
6000
7000
3800
1E00
0700
0380
8180
C180
FF00
7E00
0000
0000
0000
0000
0000
0000
0000
0000
ENDCHAR
STARTCHAR char116
ENCODING 116
SWIDTH 900 0
DWIDTH 9 0
BBX 7 30 0 -8
BITMAP
00
00
00
00
00
20
20
60
FE
FE
60
60
60
60
60
60
60
60
60
62
7E
3C
00
00
00
00
00
00
00
00
ENDCHAR
STARTCHAR char117
ENCODING 117
SWIDTH 1500 0
DWIDTH 15 0
BBX 12 30 0 -8
BITMAP
0000
0000
0000
0000
0000
0000
0000
0000
E1E0
6060
6060
6060
6060
6060
6060
6060
6060
6060
60E0
61E0
3F70
1E60
0000
0000
0000
0000
0000
0000
0000
0000
ENDCHAR
STARTCHAR char118
ENCODING 118
SWIDTH 1700 0
DWIDTH 17 0
BBX 14 30 0 -8
BITMAP
0000
0000
0000
0000
0000
0000
0000
0000
FC7C
3818
3830
1830
1830
1C60
0C60
0C60
06C0
06C0
0780
0380
0300
0300
0000
0000
0000
0000
0000
0000
0000
0000
ENDCHAR
STARTCHAR char119
ENCODING 119
SWIDTH 2100 0
DWIDTH 21 0
BBX 19 30 0 -8
BITMAP
000000
000000
000000
000000
000000
000000
000000
000000
FC43E0
7040C0
7060C0
3060C0
30E180
38F180
19B180
19B300
1DBB00
0F1B00
0F1E00
0E0C00
060C00
020400
000000
000000
000000
000000
000000
000000
000000
000000
ENDCHAR
STARTCHAR char120
ENCODING 120
SWIDTH 1700 0
DWIDTH 17 0
BBX 14 30 0 -8
BITMAP
0000
0000
0000
0000
0000
0000
0000
0000
FCF8
7030
3860
38C0
1D80
0F00
0700
0700
0F80
19C0
30E0
6070
6070
F8FC
0000
0000
0000
0000
0000
0000
0000
0000
ENDCHAR
STARTCHAR char121
ENCODING 121
SWIDTH 1400 0
DWIDTH 14 0
BBX 12 30 0 -8
BITMAP
0000
0000
0000
0000
0000
0000
0000
0000
FCF0
7060
7060
3060
38C0
18C0
18C0
1D80
0D80
0D80
0F00
0700
0700
0600
0600
0600
0C00
0C00
0C00
1800
3000
6000
ENDCHAR
STARTCHAR char122
ENCODING 122
SWIDTH 1300 0
DWIDTH 13 0
BBX 11 30 0 -8
BITMAP
0000
0000
0000
0000
0000
0000
0000
0000
7FC0
7FC0
4380
0380
0700
0700
0E00
0E00
1C00
1800
3800
3060
7FE0
FFC0
0000
0000
0000
0000
0000
0000
0000
0000
ENDCHAR
STARTCHAR char123
ENCODING 123
SWIDTH 1100 0
DWIDTH 11 0
BBX 8 30 1 -8
BITMAP
0F
1C
30
30
30
38
18
18
18
18
18
30
60
E0
60
30
18
18
18
18
18
38
30
30
30
1C
0F
00
00
00
ENDCHAR
STARTCHAR char124
ENCODING 124
SWIDTH 600 0
DWIDTH 6 0
BBX 2 30 2 -8
BITMAP
00
C0
C0
C0
C0
C0
C0
C0
C0
C0
C0
C0
C0
C0
C0
C0
C0
C0
C0
C0
C0
C0
C0
C0
C0
C0
00
00
00
00
ENDCHAR
STARTCHAR char125
ENCODING 125
SWIDTH 1000 0
DWIDTH 10 0
BBX 8 30 0 -8
BITMAP
F0
38
0C
0C
0C
1C
18
18
18
18
18
0C
06
07
06
0C
18
18
18
18
18
1C
0C
0C
0C
38
F0
00
00
00
ENDCHAR
STARTCHAR char126
ENCODING 126
SWIDTH 1900 0
DWIDTH 19 0
BBX 17 30 0 -8
BITMAP
000000
000000
000000
000000
000000
000000
000000
000000
0E0080
1F0180
3F8180
7FC300
61FF00
C0FE00
C07C00
803800
000000
000000
000000
000000
000000
000000
000000
000000
000000
000000
000000
000000
000000
000000
ENDCHAR
STARTCHAR char127
ENCODING 127
SWIDTH 2200 0
DWIDTH 22 0
BBX 19 30 1 -8
BITMAP
000000
000FC0
001FE0
003CE0
0038E0
003800
007000
007000
007000
007000
00E000
00E000
00E000
00E000
00E000
01C000
01C000
01C000
01C000
038000
E38000
E78000
7F0000
3E0000
000000
000000
000000
000000
000000
000000
ENDCHAR
ENDFONT
